<svg width="20" height="20" viewBox="0 0 20 20" fill="none" xmlns="http://www.w3.org/2000/svg">
<path fill-rule="evenodd" clip-rule="evenodd" d="M16.5899 3.41005C16.0432 2.86332 15.1568 2.86332 14.6101 3.41005L10 8.0201L5.38995 3.41005C4.84322 2.86332 3.95678 2.86332 3.41005 3.41005C2.86332 3.95678 2.86332 4.84322 3.41005 5.38995L8.0201 10L3.41005 14.6101C2.86332 15.1568 2.86332 16.0432 3.41005 16.5899C3.95678 17.1367 4.84322 17.1367 5.38995 16.5899L10 11.9799L14.6101 16.5899C15.1568 17.1367 16.0432 17.1367 16.5899 16.5899C17.1367 16.0432 17.1367 15.1568 16.5899 14.6101L11.9799 10L16.5899 5.38995C17.1367 4.84322 17.1367 3.95678 16.5899 3.41005Z" fill="#222F3E"/>
</svg>
