<svg width="28" height="28" viewBox="0 0 28 28" fill="none" xmlns="http://www.w3.org/2000/svg">
<path fill-rule="evenodd" clip-rule="evenodd" d="M26.25 5.25H19.25C19.25 2.35051 16.8995 0 14 0C11.1005 0 8.75 2.35051 8.75 5.25H1.75C0.783502 5.25 0 6.0335 0 7C0 7.9665 0.783502 8.75 1.75 8.75H3.5V24.5C3.5 26.433 5.067 28 7 28H21C22.933 28 24.5 26.433 24.5 24.5V8.75H26.25C27.2165 8.75 28 7.9665 28 7C28 6.0335 27.2165 5.25 26.25 5.25ZM14 3.5C14.9665 3.5 15.75 4.2835 15.75 5.25H12.25C12.25 4.2835 13.0335 3.5 14 3.5ZM7 8.75V24.5H21V8.75H7Z" fill="white"/>
</svg>
