<svg width="28" height="28" viewBox="0 0 28 28" fill="none" xmlns="http://www.w3.org/2000/svg">
<path fill-rule="evenodd" clip-rule="evenodd" d="M3.35631 9.0125C5.55926 6.80956 9.04298 4.56244 14 4.56244C18.957 4.56244 22.4407 6.80956 24.6437 9.0125C25.7401 10.1089 26.5296 11.2023 27.0473 12.0245C27.307 12.437 27.5008 12.7852 27.6327 13.037C27.6987 13.1631 27.7494 13.2653 27.7853 13.3398C27.8032 13.3771 27.8175 13.4074 27.8281 13.4304L27.8413 13.4593L27.8459 13.4694L27.8477 13.4734L27.8485 13.4752C27.8485 13.4752 27.8492 13.4767 26.25 14.1874C27.8492 14.8982 27.8485 14.8997 27.8485 14.8997L27.8477 14.9014L27.8459 14.9054L27.8413 14.9156L27.8281 14.9445C27.8175 14.9674 27.8032 14.9978 27.7853 15.0351C27.7494 15.1096 27.6987 15.2118 27.6327 15.3378C27.5008 15.5896 27.307 15.9378 27.0473 16.3503C26.5296 17.1726 25.7401 18.266 24.6437 19.3624C22.4407 21.5653 18.957 23.8124 14 23.8124C9.04298 23.8124 5.55926 21.5653 3.35631 19.3624C2.25989 18.266 1.47039 17.1726 0.952686 16.3503C0.692976 15.9378 0.49917 15.5896 0.367275 15.3378C0.301263 15.2118 0.250562 15.1096 0.21469 15.0351C0.196748 14.9978 0.182498 14.9674 0.171879 14.9445L0.15866 14.9156L0.154074 14.9054L0.152285 14.9014L0.151516 14.8997C0.151516 14.8997 0.15083 14.8982 1.75 14.1874C0.15083 13.4767 0.151516 13.4752 0.151516 13.4752L0.152285 13.4734L0.154074 13.4694L0.15866 13.4593L0.171879 13.4304C0.182498 13.4074 0.196748 13.3771 0.21469 13.3398C0.250562 13.2653 0.301263 13.1631 0.367275 13.037C0.49917 12.7852 0.692976 12.437 0.952686 12.0245C1.47039 11.2023 2.25989 10.1089 3.35631 9.0125ZM1.75 14.1874L0.15083 13.4767C-0.0502766 13.9292 -0.0502766 14.4457 0.15083 14.8982L1.75 14.1874ZM3.73249 14.1874C3.78719 14.2799 3.84783 14.3796 3.9145 14.4855C4.32649 15.1398 4.95886 16.0152 5.83119 16.8875C7.56574 18.6221 10.207 20.3124 14 20.3124C17.793 20.3124 20.4343 18.6221 22.1688 16.8875C23.0411 16.0152 23.6735 15.1398 24.0855 14.4855C24.1522 14.3796 24.2128 14.2799 24.2675 14.1874C24.2128 14.095 24.1522 13.9953 24.0855 13.8894C23.6735 13.2351 23.0411 12.3597 22.1688 11.4874C20.4343 9.75282 17.793 8.06244 14 8.06244C10.207 8.06244 7.56574 9.75282 5.83119 11.4874C4.95886 12.3597 4.32649 13.2351 3.9145 13.8894C3.84783 13.9953 3.78719 14.095 3.73249 14.1874ZM26.25 14.1874L27.8492 14.8982C28.0503 14.4457 28.0503 13.9292 27.8492 13.4767L26.25 14.1874Z" fill="white"/>
<path fill-rule="evenodd" clip-rule="evenodd" d="M14 12.8334C13.3557 12.8334 12.8333 13.3557 12.8333 14C12.8333 14.6444 13.3557 15.1667 14 15.1667C14.6443 15.1667 15.1667 14.6444 15.1667 14C15.1667 13.3557 14.6443 12.8334 14 12.8334ZM9.33333 14C9.33333 11.4227 11.4227 9.33335 14 9.33335C16.5773 9.33335 18.6667 11.4227 18.6667 14C18.6667 16.5773 16.5773 18.6667 14 18.6667C11.4227 18.6667 9.33333 16.5773 9.33333 14Z" fill="white"/>
</svg>
