<svg width="20" height="24" viewBox="0 0 20 24" fill="none" xmlns="http://www.w3.org/2000/svg">
<path fill-rule="evenodd" clip-rule="evenodd" d="M3.74813 0C1.67916 0 0 1.61345 0 3.60144V20.3986C0 22.3866 1.67916 24 3.74813 24H16.2519C18.3208 24 20 22.3866 20 20.3986V7.20288H16.2219C14.1529 7.20288 12.4738 5.58944 12.4738 3.60144V0H3.74813ZM19.1604 4.81152C19.0405 4.63866 18.8906 4.46579 18.7406 4.32173L15.5022 1.21008C15.3523 1.06603 15.1724 0.921969 14.9925 0.806723V3.63025C14.9925 4.29292 15.5622 4.84034 16.2519 4.84034H19.1604V4.81152ZM11.3636 18V13.4638L12.2822 14.3965C12.8147 14.9372 13.6781 14.9372 14.2107 14.3965C14.7432 13.8558 14.7432 12.9791 14.2107 12.4383L10.9965 9.17478C10.464 8.63405 9.6006 8.63405 9.06807 9.17478L5.85395 12.4383C5.32141 12.9791 5.32141 13.8558 5.85395 14.3965C6.38648 14.9372 7.24989 14.9372 7.78242 14.3965L8.63636 13.5294V18C8.63636 18.7647 9.24688 19.3846 10 19.3846C10.7531 19.3846 11.3636 18.7647 11.3636 18Z" fill="#222F3E"/>
</svg>
